<?xml version="1.0" encoding="UTF-8" ?>
<!DOCTYPE svg PUBLIC "-//W3C//DTD SVG 1.1//EN" "http://www.w3.org/Graphics/SVG/1.1/DTD/svg11.dtd">
<svg width="650pt" height="798pt" viewBox="0 0 650 798" version="1.1" xmlns="http://www.w3.org/2000/svg">
<g id="#f6f6f6ff">
</g>
<g id="#352d2aff">
<path fill="#352d2a" opacity="1.00" d=" M 265.70 7.71 C 274.49 0.98 286.45 -0.27 297.01 2.02 C 300.07 5.53 302.01 9.86 304.54 13.76 C 309.52 12.70 314.35 11.03 319.38 10.17 C 341.30 6.09 364.30 8.02 385.24 15.66 C 405.52 22.96 426.13 31.10 442.68 45.30 C 450.84 52.22 457.54 61.19 460.61 71.53 C 462.15 76.58 462.21 81.90 462.51 87.12 C 468.68 89.25 473.08 94.55 475.59 100.40 C 481.10 112.79 482.30 126.57 482.66 139.96 C 483.07 156.00 481.58 172.00 479.85 187.92 C 479.44 191.56 478.73 195.17 478.19 198.79 C 477.41 204.57 476.73 210.36 475.65 216.09 C 472.56 214.44 469.41 212.69 467.03 210.08 C 465.80 207.86 465.54 205.26 464.96 202.83 C 459.02 173.65 454.91 143.58 458.56 113.83 C 458.63 112.67 458.69 111.52 458.75 110.38 C 447.56 104.29 435.43 100.14 423.23 96.60 C 390.69 87.43 356.74 83.85 323.00 84.17 C 301.14 84.08 279.25 85.71 257.72 89.50 C 237.40 92.88 217.31 98.20 198.37 106.39 C 195.61 107.57 192.94 108.97 190.33 110.46 C 194.52 140.64 190.61 171.25 184.70 200.92 C 183.99 204.02 183.61 207.29 182.15 210.16 C 179.74 212.71 176.62 214.43 173.57 216.09 C 172.57 210.00 171.77 203.89 170.82 197.80 C 170.29 193.87 169.88 189.93 169.40 185.99 C 167.85 175.72 167.20 165.34 166.67 154.97 C 166.27 138.95 166.37 122.58 171.08 107.11 C 173.63 98.95 177.97 90.24 186.53 87.11 C 185.98 81.48 185.66 75.72 187.22 70.22 C 190.82 56.31 199.39 44.35 208.59 33.57 C 211.88 29.96 215.08 26.22 218.90 23.13 C 222.13 24.80 225.37 26.48 228.67 28.00 C 230.02 18.08 237.63 8.87 247.91 7.68 C 250.73 11.75 253.06 16.13 255.88 20.20 C 258.52 15.60 261.33 10.90 265.70 7.71 Z" />
</g>
<g id="#f7caa9ff">
<path fill="#f7caa9" opacity="1.00" d=" M 257.72 89.50 C 279.25 85.71 301.14 84.08 323.00 84.17 C 356.74 83.85 390.69 87.43 423.23 96.60 C 435.43 100.14 447.56 104.29 458.75 110.38 C 458.69 111.52 458.63 112.67 458.56 113.83 C 454.91 143.58 459.02 173.65 464.96 202.83 C 465.54 205.26 465.80 207.86 467.03 210.08 C 469.41 212.69 472.56 214.44 475.65 216.09 C 476.73 210.36 477.41 204.57 478.19 198.79 C 483.16 197.11 488.47 198.83 492.97 201.08 C 501.23 205.51 506.61 213.98 509.04 222.85 C 512.04 234.89 510.04 248.05 503.71 258.71 C 499.08 266.35 491.76 272.48 483.13 274.99 C 479.46 275.81 475.66 275.61 471.94 275.80 C 469.44 280.51 468.49 285.80 466.84 290.82 C 461.88 306.79 454.31 321.97 444.45 335.47 C 423.52 364.99 388.92 382.97 353.42 387.45 C 350.35 387.74 347.32 388.33 344.36 389.15 C 344.07 398.99 344.80 408.86 343.93 418.68 C 338.20 423.50 330.01 424.79 325.64 431.24 C 325.32 431.01 324.69 430.54 324.38 430.31 C 321.42 428.31 318.59 426.12 315.45 424.40 C 311.80 422.25 307.73 420.70 304.60 417.77 C 307.61 412.43 305.62 406.17 306.77 400.43 C 307.52 396.52 308.33 392.40 306.48 388.65 C 305.89 388.59 304.72 388.46 304.14 388.40 C 281.50 386.91 259.34 379.66 239.86 368.10 C 219.99 355.64 203.88 337.64 193.19 316.80 C 186.20 303.96 181.97 289.91 177.85 275.97 C 172.93 275.45 167.76 276.04 163.12 273.98 C 153.47 270.38 146.28 261.96 142.43 252.60 C 136.77 238.92 137.77 222.40 146.06 209.98 C 151.81 202.32 161.14 197.38 170.82 197.80 C 171.77 203.89 172.57 210.00 173.57 216.09 C 176.62 214.43 179.74 212.71 182.15 210.16 C 183.61 207.29 183.99 204.02 184.70 200.92 C 190.61 171.25 194.52 140.64 190.33 110.46 C 192.94 108.97 195.61 107.57 198.37 106.39 C 217.31 98.20 237.40 92.88 257.72 89.50 M 237.78 164.77 C 229.74 169.60 224.32 177.74 220.01 185.86 C 225.53 179.62 232.23 173.38 240.97 172.70 C 246.20 171.90 250.99 174.33 255.76 176.02 C 257.54 173.71 259.86 170.24 257.56 167.50 C 252.88 161.99 243.88 161.23 237.78 164.77 M 391.57 167.54 C 389.62 170.34 391.71 173.54 393.25 175.96 C 397.83 174.83 402.09 172.04 407.01 172.63 C 416.66 172.82 424.15 179.83 429.95 186.83 C 426.39 180.39 422.39 174.06 417.07 168.91 C 413.06 165.09 407.70 162.00 401.97 162.70 C 398.20 163.21 393.90 164.28 391.57 167.54 M 239.37 208.50 C 233.08 210.85 229.50 217.26 227.65 223.37 C 225.29 232.75 226.03 243.36 231.44 251.59 C 234.16 255.75 238.82 259.16 244.00 258.77 C 248.84 258.67 252.76 255.11 255.34 251.31 C 262.32 240.11 261.93 224.54 254.22 213.79 C 250.90 209.33 244.84 206.46 239.37 208.50 M 403.26 208.20 C 399.14 209.08 395.94 212.24 393.68 215.64 C 389.16 222.70 388.40 231.49 389.50 239.63 C 390.71 246.39 393.77 253.42 399.82 257.17 C 404.60 260.11 411.10 258.91 414.98 254.99 C 420.16 249.78 422.69 242.29 422.81 235.04 C 423.14 227.45 421.43 219.44 416.57 213.44 C 413.45 209.57 408.31 206.81 403.26 208.20 M 279.10 321.30 C 280.04 327.88 286.87 330.69 292.43 332.50 C 305.51 336.46 319.38 337.04 332.95 336.44 C 342.88 335.65 353.10 334.66 362.22 330.36 C 365.92 328.59 369.91 325.66 369.95 321.14 C 369.25 321.12 367.84 321.08 367.14 321.06 C 362.92 325.74 356.75 327.67 350.79 328.98 C 335.81 332.28 320.20 332.46 305.06 330.24 C 296.85 328.87 287.94 327.21 281.91 320.97 C 281.20 321.05 279.80 321.21 279.10 321.30 Z" />
<path fill="#f7caa9" opacity="1.00" d=" M 553.00 298.02 C 558.67 294.63 565.60 294.29 572.04 294.67 C 580.34 295.55 588.74 295.63 596.98 297.13 C 600.90 298.65 605.49 299.39 608.56 302.47 C 612.30 307.49 609.80 314.12 610.37 319.87 C 609.80 322.88 609.22 325.90 608.88 328.95 C 607.74 340.25 605.00 351.56 599.51 361.58 C 598.12 364.16 596.29 366.48 594.22 368.54 C 589.45 371.00 584.07 369.75 579.06 368.97 C 572.88 367.90 566.59 368.45 560.38 367.73 C 560.15 366.66 559.91 365.60 559.68 364.54 C 559.43 364.65 558.93 364.88 558.68 365.00 C 548.79 351.99 536.66 340.23 521.70 333.26 C 516.73 330.81 511.19 329.93 506.09 327.82 C 507.35 322.92 509.95 318.09 514.25 315.24 C 519.43 312.36 525.75 313.52 530.84 316.02 C 537.23 318.62 542.14 323.64 548.04 327.06 C 548.40 321.40 548.01 315.74 548.36 310.08 C 548.69 305.81 549.32 300.78 553.00 298.02 Z" />
</g>
<g id="#212324ff">
<path fill="#212324" opacity="1.00" d=" M 237.78 164.77 C 243.88 161.23 252.88 161.99 257.56 167.50 C 259.86 170.24 257.54 173.71 255.76 176.02 C 250.99 174.33 246.20 171.90 240.97 172.70 C 232.23 173.38 225.53 179.62 220.01 185.86 C 224.32 177.74 229.74 169.60 237.78 164.77 Z" />
</g>
<g id="#212424ff">
<path fill="#212424" opacity="1.00" d=" M 391.57 167.54 C 393.90 164.28 398.20 163.21 401.97 162.70 C 407.70 162.00 413.06 165.09 417.07 168.91 C 422.39 174.06 426.39 180.39 429.95 186.83 C 424.15 179.83 416.66 172.82 407.01 172.63 C 402.09 172.04 397.83 174.83 393.25 175.96 C 391.71 173.54 389.62 170.34 391.57 167.54 Z" />
</g>
<g id="#6b83c1ff">
<path fill="#6b83c1" opacity="1.00" d=" M 169.40 185.99 C 169.88 189.93 170.29 193.87 170.82 197.80 C 161.14 197.38 151.81 202.32 146.06 209.98 C 137.77 222.40 136.77 238.92 142.43 252.60 C 146.28 261.96 153.47 270.38 163.12 273.98 C 167.76 276.04 172.93 275.45 177.85 275.97 C 181.97 289.91 186.20 303.96 193.19 316.80 C 203.88 337.64 219.99 355.64 239.86 368.10 C 259.34 379.66 281.50 386.91 304.14 388.40 C 304.58 397.91 304.81 407.50 303.97 417.00 C 301.33 418.34 300.82 421.37 299.95 423.91 C 297.53 426.21 294.86 428.25 292.52 430.65 C 274.91 432.16 257.27 434.97 240.43 440.48 C 233.43 442.89 226.33 445.75 220.71 450.72 C 217.72 453.29 216.29 457.06 215.11 460.70 C 206.49 473.81 200.71 488.53 195.17 503.13 C 180.91 542.38 172.33 583.42 165.64 624.56 C 161.60 650.74 158.67 677.10 157.48 703.57 C 156.61 714.70 156.65 725.88 155.81 737.02 C 155.42 741.06 156.49 745.45 154.52 749.20 C 136.16 737.38 118.58 724.30 102.69 709.30 C 77.11 685.30 55.48 657.13 38.77 626.30 C 19.91 590.96 7.42 552.18 2.64 512.38 C -0.01 492.38 0.07 472.14 0.84 452.02 C 3.32 412.82 12.94 374.03 29.30 338.31 C 57.03 277.14 104.33 225.03 162.62 191.65 C 165.18 190.18 168.16 188.90 169.40 185.99 Z" />
<path fill="#6b83c1" opacity="1.00" d=" M 479.85 187.92 C 527.09 213.86 568.14 251.52 596.98 297.13 C 588.74 295.63 580.34 295.55 572.04 294.67 C 565.60 294.29 558.67 294.63 553.00 298.02 C 549.32 300.78 548.69 305.81 548.36 310.08 C 548.01 315.74 548.40 321.40 548.04 327.06 C 542.14 323.64 537.23 318.62 530.84 316.02 C 525.75 313.52 519.43 312.36 514.25 315.24 C 509.95 318.09 507.35 322.92 506.09 327.82 C 511.19 329.93 516.73 330.81 521.70 333.26 C 536.66 340.23 548.79 351.99 558.68 365.00 C 557.64 366.49 556.33 368.14 556.74 370.10 C 560.20 392.90 563.13 415.90 562.84 439.01 C 562.96 448.95 562.29 459.01 559.60 468.62 C 558.33 472.80 556.26 477.02 552.59 479.59 C 547.75 482.88 541.78 483.90 536.02 483.86 C 514.88 484.05 494.17 478.85 474.00 473.02 C 460.21 469.23 446.75 464.38 433.21 459.79 C 432.70 452.11 425.36 447.94 419.31 444.75 C 405.18 438.03 389.65 435.01 374.29 432.68 C 370.71 432.13 367.10 431.77 363.49 431.79 C 360.12 427.75 356.54 423.77 352.14 420.83 C 350.85 419.87 349.25 419.62 347.71 419.43 C 347.40 418.75 347.10 418.09 346.79 417.44 C 345.82 417.83 344.86 418.23 343.93 418.68 C 344.80 408.86 344.07 398.99 344.36 389.15 C 347.32 388.33 350.35 387.74 353.42 387.45 C 388.92 382.97 423.52 364.99 444.45 335.47 C 454.31 321.97 461.88 306.79 466.84 290.82 C 468.49 285.80 469.44 280.51 471.94 275.80 C 475.66 275.61 479.46 275.81 483.13 274.99 C 491.76 272.48 499.08 266.35 503.71 258.71 C 510.04 248.05 512.04 234.89 509.04 222.85 C 506.61 213.98 501.23 205.51 492.97 201.08 C 488.47 198.83 483.16 197.11 478.19 198.79 C 478.73 195.17 479.44 191.56 479.85 187.92 Z" />
<path fill="#6b83c1" opacity="1.00" d=" M 608.88 328.95 C 609.22 325.90 609.80 322.88 610.37 319.87 C 614.37 326.95 617.85 334.31 621.25 341.70 C 636.85 377.39 646.42 415.92 648.08 454.88 C 648.54 460.64 646.43 467.34 650.00 472.36 L 650.00 472.72 C 646.44 477.66 648.54 484.27 648.08 489.95 C 648.06 498.34 646.98 506.68 645.99 515.00 C 640.74 555.78 627.54 595.53 607.36 631.35 C 574.83 689.50 523.91 737.14 463.68 765.69 C 454.26 770.47 444.22 773.84 434.65 778.30 C 433.66 777.09 433.16 775.61 433.29 774.06 C 433.39 695.71 433.29 617.35 433.34 539.00 C 433.34 534.69 433.41 530.37 433.11 526.06 C 457.25 529.56 481.60 531.81 506.00 532.28 C 533.35 532.22 562.24 529.05 585.58 513.56 C 593.51 508.59 596.49 499.05 598.39 490.41 C 601.31 476.14 601.91 461.52 601.74 447.00 C 602.01 423.24 599.83 399.53 597.26 375.93 C 597.14 373.16 595.99 370.63 594.22 368.54 C 596.29 366.48 598.12 364.16 599.51 361.58 C 605.00 351.56 607.74 340.25 608.88 328.95 Z" />
</g>
<g id="#222423ff">
<path fill="#222423" opacity="1.00" d=" M 239.37 208.50 C 244.84 206.46 250.90 209.33 254.22 213.79 C 261.93 224.54 262.32 240.11 255.34 251.31 C 252.76 255.11 248.84 258.67 244.00 258.77 C 238.82 259.16 234.16 255.75 231.44 251.59 C 226.03 243.36 225.29 232.75 227.65 223.37 C 229.50 217.26 233.08 210.85 239.37 208.50 M 246.50 214.56 C 243.64 218.20 245.04 223.70 248.31 226.61 C 250.04 228.47 253.94 228.69 255.03 226.02 C 257.74 220.88 252.89 211.81 246.50 214.56 Z" />
<path fill="#222423" opacity="1.00" d=" M 403.26 208.20 C 408.31 206.81 413.45 209.57 416.57 213.44 C 421.43 219.44 423.14 227.45 422.81 235.04 C 422.69 242.29 420.16 249.78 414.98 254.99 C 411.10 258.91 404.60 260.11 399.82 257.17 C 393.77 253.42 390.71 246.39 389.50 239.63 C 388.40 231.49 389.16 222.70 393.68 215.64 C 395.94 212.24 399.14 209.08 403.26 208.20 M 409.47 214.45 C 405.29 218.68 408.38 226.98 414.02 228.18 C 417.27 228.29 418.81 224.77 418.36 221.97 C 418.11 217.75 414.17 212.55 409.47 214.45 Z" />
</g>
<g id="#fcfffdff">
<path fill="#fcfffd" opacity="1.00" d=" M 246.50 214.56 C 252.89 211.81 257.74 220.88 255.03 226.02 C 253.94 228.69 250.04 228.47 248.31 226.61 C 245.04 223.70 243.64 218.20 246.50 214.56 Z" />
</g>
<g id="#fcfffbff">
<path fill="#fcfffb" opacity="1.00" d=" M 409.47 214.45 C 414.17 212.55 418.11 217.75 418.36 221.97 C 418.81 224.77 417.27 228.29 414.02 228.18 C 408.38 226.98 405.29 218.68 409.47 214.45 Z" />
</g>
<g id="#211e1dff">
<path fill="#211e1d" opacity="1.00" d=" M 279.10 321.30 C 279.80 321.21 281.20 321.05 281.91 320.97 C 287.94 327.21 296.85 328.87 305.06 330.24 C 320.20 332.46 335.81 332.28 350.79 328.98 C 356.75 327.67 362.92 325.74 367.14 321.06 C 367.84 321.08 369.25 321.12 369.95 321.14 C 369.91 325.66 365.92 328.59 362.22 330.36 C 353.10 334.66 342.88 335.65 332.95 336.44 C 319.38 337.04 305.51 336.46 292.43 332.50 C 286.87 330.69 280.04 327.88 279.10 321.30 Z" />
</g>
<g id="#dfdee4ff">
<path fill="#dfdee4" opacity="1.00" d=" M 558.68 365.00 C 558.93 364.88 559.43 364.65 559.68 364.54 C 559.91 365.60 560.15 366.66 560.38 367.73 C 566.59 368.45 572.88 367.90 579.06 368.97 C 584.07 369.75 589.45 371.00 594.22 368.54 C 595.99 370.63 597.14 373.16 597.26 375.93 C 599.83 399.53 602.01 423.24 601.74 447.00 C 601.91 461.52 601.31 476.14 598.39 490.41 C 596.49 499.05 593.51 508.59 585.58 513.56 C 562.24 529.05 533.35 532.22 506.00 532.28 C 481.60 531.81 457.25 529.56 433.11 526.06 C 432.44 519.72 433.01 513.35 432.92 507.00 C 432.85 495.67 432.96 484.34 432.87 473.01 C 432.70 468.59 432.65 464.17 433.21 459.79 C 446.75 464.38 460.21 469.23 474.00 473.02 C 494.17 478.85 514.88 484.05 536.02 483.86 C 541.78 483.90 547.75 482.88 552.59 479.59 C 556.26 477.02 558.33 472.80 559.60 468.62 C 562.29 459.01 562.96 448.95 562.84 439.01 C 563.13 415.90 560.20 392.90 556.74 370.10 C 556.33 368.14 557.64 366.49 558.68 365.00 Z" />
<path fill="#dfdee4" opacity="1.00" d=" M 350.33 432.44 C 350.61 430.56 352.81 430.20 354.13 429.27 C 357.59 432.14 360.35 435.74 362.64 439.59 C 359.51 444.51 362.99 450.03 363.10 455.25 C 363.46 465.54 365.15 475.71 366.16 485.94 C 366.66 491.50 368.06 496.98 367.87 502.60 C 365.35 503.51 362.77 504.28 360.37 505.49 C 360.29 505.81 360.13 506.46 360.05 506.78 C 362.44 509.62 366.80 511.20 367.69 515.04 C 366.26 519.89 363.86 524.41 362.33 529.24 C 355.91 544.50 350.76 560.24 344.45 575.55 C 341.81 581.98 340.18 588.82 336.94 595.00 C 336.49 596.01 335.56 596.65 334.72 597.33 C 336.28 581.93 337.31 566.48 339.00 551.10 C 339.53 546.44 339.21 541.73 339.81 537.08 C 341.52 530.17 341.27 523.01 342.07 515.98 C 344.59 491.41 346.34 466.75 349.10 442.21 C 349.50 438.95 349.63 435.65 350.33 432.44 Z" />
<path fill="#dfdee4" opacity="1.00" d=" M 286.89 449.35 C 289.58 443.12 293.23 437.24 298.12 432.49 C 298.74 434.04 299.37 435.58 299.94 437.16 C 300.97 448.78 301.90 460.40 303.21 471.99 C 304.39 486.15 305.50 500.33 307.23 514.44 C 308.25 523.02 308.27 531.71 309.78 540.24 C 310.44 559.00 313.09 577.63 314.31 596.35 C 309.63 592.03 309.37 585.29 306.45 579.95 C 305.93 581.63 305.40 583.32 304.98 585.04 C 305.10 580.05 304.76 575.05 303.92 570.13 C 300.82 551.11 297.46 532.00 291.16 513.74 C 288.45 506.78 285.82 499.30 280.04 494.25 C 280.88 494.32 281.72 494.42 282.56 494.54 C 283.25 489.38 283.40 484.18 283.89 479.00 C 284.65 469.10 287.26 459.33 286.89 449.35 Z" />
<path fill="#dfdee4" opacity="1.00" d=" M 195.17 503.13 C 200.71 488.53 206.49 473.81 215.11 460.70 C 215.41 462.75 215.77 464.80 215.86 466.88 C 216.13 482.58 216.00 498.29 216.02 514.00 C 215.91 537.24 216.24 560.50 215.87 583.74 C 213.12 591.79 211.50 600.17 209.41 608.41 C 204.36 630.42 199.34 652.51 196.81 674.97 C 195.06 695.43 194.68 715.96 193.53 736.45 C 193.36 747.30 192.26 758.11 192.17 768.98 C 179.09 763.49 166.44 756.90 154.52 749.20 C 156.49 745.45 155.42 741.06 155.81 737.02 C 156.65 725.88 156.61 714.70 157.48 703.57 C 158.67 677.10 161.60 650.74 165.64 624.56 C 172.33 583.42 180.91 542.38 195.17 503.13 Z" />
<path fill="#dfdee4" opacity="1.00" d=" M 314.17 762.01 C 314.03 753.23 313.73 744.39 314.68 735.64 L 314.69 736.59 C 314.92 746.04 314.30 755.52 315.09 764.95 C 321.50 765.62 327.97 765.38 334.38 764.83 C 334.05 775.55 334.42 786.28 334.23 797.00 C 327.81 796.88 321.40 796.93 314.99 797.06 C 314.60 785.37 315.47 773.66 314.17 762.01 Z" />
</g>
<g id="#e0cac2ff">
<path fill="#e0cac2" opacity="1.00" d=" M 304.14 388.40 C 304.72 388.46 305.89 388.59 306.48 388.65 C 308.33 392.40 307.52 396.52 306.77 400.43 C 305.62 406.17 307.61 412.43 304.60 417.77 L 303.97 417.00 C 304.81 407.50 304.58 397.91 304.14 388.40 Z" />
</g>
<g id="#b7d2edff">
<path fill="#b7d2ed" opacity="1.00" d=" M 299.95 423.91 C 300.82 421.37 301.33 418.34 303.97 417.00 L 304.60 417.77 C 307.73 420.70 311.80 422.25 315.45 424.40 C 318.59 426.12 321.42 428.31 324.38 430.31 C 320.94 435.10 317.85 440.12 314.80 445.15 C 313.84 446.34 313.16 448.54 311.23 448.02 C 306.91 443.53 304.36 437.67 300.11 433.10 C 300.03 434.45 299.97 435.80 299.94 437.16 C 299.37 435.58 298.74 434.04 298.12 432.49 C 298.68 429.62 299.28 426.75 299.95 423.91 Z" />
</g>
<g id="#b6d2efff">
<path fill="#b6d2ef" opacity="1.00" d=" M 343.93 418.68 C 344.86 418.23 345.82 417.83 346.79 417.44 C 347.10 418.09 347.40 418.75 347.71 419.43 C 348.56 423.44 350.77 426.90 354.13 429.27 C 352.81 430.20 350.61 430.56 350.33 432.44 C 349.63 435.65 349.50 438.95 349.10 442.21 C 349.28 439.42 349.18 436.64 349.00 433.86 C 344.79 438.17 342.08 443.65 337.96 448.02 C 336.96 447.66 335.97 447.31 334.97 446.97 C 332.63 441.31 328.98 436.32 325.64 431.24 C 330.01 424.79 338.20 423.50 343.93 418.68 Z" />
</g>
<g id="#201e1cff">
<path fill="#201e1c" opacity="1.00" d=" M 347.71 419.43 C 349.25 419.62 350.85 419.87 352.14 420.83 C 356.54 423.77 360.12 427.75 363.49 431.79 C 373.35 445.24 378.21 461.59 381.50 477.74 C 384.91 495.68 386.50 513.98 386.25 532.23 C 384.61 531.94 382.97 531.71 381.33 531.47 C 381.26 512.37 379.74 493.19 375.72 474.50 C 373.00 462.35 369.28 450.22 362.64 439.59 C 360.35 435.74 357.59 432.14 354.13 429.27 C 350.77 426.90 348.56 423.44 347.71 419.43 Z" />
</g>
<g id="#201f1eff">
<path fill="#201f1e" opacity="1.00" d=" M 292.52 430.65 C 294.86 428.25 297.53 426.21 299.95 423.91 C 299.28 426.75 298.68 429.62 298.12 432.49 C 293.23 437.24 289.58 443.12 286.89 449.35 C 280.63 462.56 277.91 477.27 277.19 491.80 C 278.14 492.60 279.09 493.42 280.04 494.25 C 285.82 499.30 288.45 506.78 291.16 513.74 C 297.46 532.00 300.82 551.11 303.92 570.13 C 304.76 575.05 305.10 580.05 304.98 585.04 C 304.06 591.49 301.33 597.96 295.88 601.85 C 292.99 603.57 292.94 607.41 290.50 609.47 C 286.83 611.81 281.22 610.99 278.76 607.26 C 276.66 602.57 280.31 597.46 284.42 595.34 C 286.82 593.92 289.52 595.44 291.96 595.94 C 294.58 593.91 296.96 591.40 297.90 588.13 C 299.98 581.41 298.26 574.35 297.21 567.61 C 294.67 552.26 291.53 536.99 287.13 522.06 C 285.14 515.91 283.35 509.59 279.91 504.05 C 278.69 502.19 277.21 500.21 274.96 499.61 C 272.69 499.38 271.27 501.52 270.03 503.08 C 267.06 507.43 265.21 512.44 263.54 517.40 C 257.56 536.08 253.95 555.42 250.90 574.76 C 249.39 582.23 250.41 591.17 257.09 595.90 C 259.57 595.45 262.26 593.97 264.71 595.32 C 268.26 597.13 271.31 600.86 271.18 605.01 C 270.65 610.13 264.07 611.89 259.93 610.07 C 256.37 608.81 256.76 604.09 253.78 602.19 C 250.29 599.61 247.45 596.15 246.05 592.01 C 242.86 583.99 244.48 575.22 245.83 566.99 C 249.01 548.13 252.42 529.14 259.08 511.14 C 261.83 503.83 265.37 496.37 272.09 491.90 C 273.26 470.25 278.57 447.78 292.52 430.65 Z" />
</g>
<g id="#edeceaff">
<path fill="#edecea" opacity="1.00" d=" M 240.43 440.48 C 257.27 434.97 274.91 432.16 292.52 430.65 C 278.57 447.78 273.26 470.25 272.09 491.90 C 265.37 496.37 261.83 503.83 259.08 511.14 C 252.42 529.14 249.01 548.13 245.83 566.99 C 244.48 575.22 242.86 583.99 246.05 592.01 C 247.45 596.15 250.29 599.61 253.78 602.19 C 256.76 604.09 256.37 608.81 259.93 610.07 C 264.07 611.89 270.65 610.13 271.18 605.01 C 271.31 600.86 268.26 597.13 264.71 595.32 C 262.26 593.97 259.57 595.45 257.09 595.90 C 250.41 591.17 249.39 582.23 250.90 574.76 C 253.95 555.42 257.56 536.08 263.54 517.40 C 265.21 512.44 267.06 507.43 270.03 503.08 C 271.27 501.52 272.69 499.38 274.96 499.61 C 277.21 500.21 278.69 502.19 279.91 504.05 C 283.35 509.59 285.14 515.91 287.13 522.06 C 291.53 536.99 294.67 552.26 297.21 567.61 C 298.26 574.35 299.98 581.41 297.90 588.13 C 296.96 591.40 294.58 593.91 291.96 595.94 C 289.52 595.44 286.82 593.92 284.42 595.34 C 280.31 597.46 276.66 602.57 278.76 607.26 C 281.22 610.99 286.83 611.81 290.50 609.47 C 292.94 607.41 292.99 603.57 295.88 601.85 C 301.33 597.96 304.06 591.49 304.98 585.04 C 305.40 583.32 305.93 581.63 306.45 579.95 C 309.37 585.29 309.63 592.03 314.31 596.35 C 314.75 600.89 314.75 605.45 314.70 610.01 C 314.67 651.88 314.73 693.76 314.68 735.64 C 313.73 744.39 314.03 753.23 314.17 762.01 C 315.47 773.66 314.60 785.37 314.99 797.06 C 306.30 797.63 297.67 796.32 289.03 795.72 C 278.04 794.69 267.28 792.11 256.38 790.45 C 248.83 789.12 241.54 786.67 234.08 784.92 C 227.19 783.35 220.59 780.81 214.11 778.04 C 214.49 777.92 215.25 777.69 215.64 777.57 C 216.25 763.06 215.70 748.52 215.89 734.00 C 215.87 683.91 215.91 633.82 215.87 583.74 C 216.24 560.50 215.91 537.24 216.02 514.00 C 216.00 498.29 216.13 482.58 215.86 466.88 C 215.77 464.80 215.41 462.75 215.11 460.70 C 216.29 457.06 217.72 453.29 220.71 450.72 C 226.33 445.75 233.43 442.89 240.43 440.48 Z" />
<path fill="#edecea" opacity="1.00" d=" M 363.49 431.79 C 367.10 431.77 370.71 432.13 374.29 432.68 C 389.65 435.01 405.18 438.03 419.31 444.75 C 425.36 447.94 432.70 452.11 433.21 459.79 C 432.65 464.17 432.70 468.59 432.87 473.01 C 432.96 484.34 432.85 495.67 432.92 507.00 C 433.01 513.35 432.44 519.72 433.11 526.06 C 433.41 530.37 433.34 534.69 433.34 539.00 C 433.29 617.35 433.39 695.71 433.29 774.06 C 433.16 775.61 433.66 777.09 434.65 778.30 C 425.45 782.16 415.72 784.58 406.12 787.25 C 397.75 789.66 389.09 790.81 380.59 792.64 C 374.52 793.92 368.33 794.27 362.20 795.09 C 352.90 796.06 343.61 797.75 334.23 797.00 C 334.42 786.28 334.05 775.55 334.38 764.83 C 334.41 755.49 334.37 746.16 334.33 736.83 C 334.61 706.89 334.37 676.94 334.45 647.00 C 334.63 630.44 334.09 613.87 334.72 597.33 C 335.56 596.65 336.49 596.01 336.94 595.00 C 340.18 588.82 341.81 581.98 344.45 575.55 C 350.76 560.24 355.91 544.50 362.33 529.24 C 363.86 524.41 366.26 519.89 367.69 515.04 C 366.80 511.20 362.44 509.62 360.05 506.78 C 360.13 506.46 360.29 505.81 360.37 505.49 C 362.77 504.28 365.35 503.51 367.87 502.60 C 368.06 496.98 366.66 491.50 366.16 485.94 C 365.15 475.71 363.46 465.54 363.10 455.25 C 362.99 450.03 359.51 444.51 362.64 439.59 C 369.28 450.22 373.00 462.35 375.72 474.50 C 379.74 493.19 381.26 512.37 381.33 531.47 C 378.30 533.30 374.88 534.78 372.57 537.57 C 368.65 542.57 368.54 550.35 372.76 555.21 C 377.60 561.91 388.75 562.37 394.19 556.21 C 398.86 551.35 399.39 543.09 395.25 537.74 C 393.14 534.75 389.66 533.20 386.25 532.23 C 386.50 513.98 384.91 495.68 381.50 477.74 C 378.21 461.59 373.35 445.24 363.49 431.79 Z" />
</g>
<g id="#992a30ff">
<path fill="#992a30" opacity="1.00" d=" M 324.38 430.31 C 324.69 430.54 325.32 431.01 325.64 431.24 C 328.98 436.32 332.63 441.31 334.97 446.97 C 330.26 458.22 332.86 470.43 333.71 482.12 C 334.23 488.73 335.26 495.29 335.66 501.91 C 336.17 514.95 338.59 527.86 338.35 540.94 C 338.84 539.65 339.35 538.37 339.81 537.08 C 339.21 541.73 339.53 546.44 339.00 551.10 C 337.31 566.48 336.28 581.93 334.72 597.33 C 334.09 613.87 334.63 630.44 334.45 647.00 C 334.37 676.94 334.61 706.89 334.33 736.83 C 330.90 738.51 327.88 741.20 324.13 742.09 C 320.82 740.55 317.88 738.33 314.69 736.59 L 314.68 735.64 C 314.73 693.76 314.67 651.88 314.70 610.01 C 314.75 605.45 314.75 600.89 314.31 596.35 C 313.09 577.63 310.44 559.00 309.78 540.24 C 311.53 532.59 311.63 524.71 312.37 516.93 C 314.07 499.29 315.50 481.63 317.23 463.99 C 318.03 457.57 315.23 451.49 314.80 445.15 C 317.85 440.12 320.94 435.10 324.38 430.31 Z" />
</g>
<g id="#74bca4ff">
<path fill="#74bca4" opacity="1.00" d=" M 300.11 433.10 C 304.36 437.67 306.91 443.53 311.23 448.02 C 313.16 448.54 313.84 446.34 314.80 445.15 C 315.23 451.49 318.03 457.57 317.23 463.99 C 315.50 481.63 314.07 499.29 312.37 516.93 C 311.63 524.71 311.53 532.59 309.78 540.24 C 308.27 531.71 308.25 523.02 307.23 514.44 C 305.50 500.33 304.39 486.15 303.21 471.99 C 301.90 460.40 300.97 448.78 299.94 437.16 C 299.97 435.80 300.03 434.45 300.11 433.10 Z" />
<path fill="#74bca4" opacity="1.00" d=" M 337.96 448.02 C 342.08 443.65 344.79 438.17 349.00 433.86 C 349.18 436.64 349.28 439.42 349.10 442.21 C 346.34 466.75 344.59 491.41 342.07 515.98 C 341.27 523.01 341.52 530.17 339.81 537.08 C 339.35 538.37 338.84 539.65 338.35 540.94 C 338.59 527.86 336.17 514.95 335.66 501.91 C 335.26 495.29 334.23 488.73 333.71 482.12 C 332.86 470.43 330.26 458.22 334.97 446.97 C 335.97 447.31 336.96 447.66 337.96 448.02 Z" />
</g>
<g id="#edececff">
<path fill="#edecec" opacity="1.00" d=" M 277.19 491.80 C 277.91 477.27 280.63 462.56 286.89 449.35 C 287.26 459.33 284.65 469.10 283.89 479.00 C 283.40 484.18 283.25 489.38 282.56 494.54 C 281.72 494.42 280.88 494.32 280.04 494.25 C 279.09 493.42 278.14 492.60 277.19 491.80 Z" />
</g>
<g id="#a1afd4ff">
<path fill="#a1afd4" opacity="1.00" d=" M 648.08 454.88 C 648.56 455.04 649.52 455.37 650.00 455.53 L 650.00 472.36 C 646.43 467.34 648.54 460.64 648.08 454.88 Z" />
</g>
<g id="#a1aed8ff">
<path fill="#a1aed8" opacity="1.00" d=" M 648.08 489.95 C 648.54 484.27 646.44 477.66 650.00 472.72 L 650.00 490.00 C 649.52 489.99 648.56 489.96 648.08 489.95 Z" />
</g>
<g id="#828181ff">
<path fill="#828181" opacity="1.00" d=" M 381.33 531.47 C 382.97 531.71 384.61 531.94 386.25 532.23 C 389.66 533.20 393.14 534.75 395.25 537.74 C 399.39 543.09 398.86 551.35 394.19 556.21 C 388.75 562.37 377.60 561.91 372.76 555.21 C 368.54 550.35 368.65 542.57 372.57 537.57 C 374.88 534.78 378.30 533.30 381.33 531.47 M 384.21 539.47 C 381.75 539.55 379.31 540.79 377.78 542.71 C 375.93 546.16 377.34 551.43 381.30 552.70 C 385.51 554.63 390.82 550.89 390.60 546.34 C 390.92 542.61 387.73 539.74 384.21 539.47 Z" />
</g>
<g id="#666665ff">
<path fill="#666665" opacity="1.00" d=" M 384.21 539.47 C 387.73 539.74 390.92 542.61 390.60 546.34 C 390.82 550.89 385.51 554.63 381.30 552.70 C 377.34 551.43 375.93 546.16 377.78 542.71 C 379.31 540.79 381.75 539.55 384.21 539.47 M 383.31 541.39 C 381.62 541.71 380.02 542.78 379.28 544.37 C 377.78 547.25 380.30 550.85 383.13 551.68 C 385.83 551.72 388.45 549.55 388.91 546.88 C 389.49 543.82 386.14 541.17 383.31 541.39 Z" />
</g>
<g id="#818181ff">
<path fill="#818181" opacity="1.00" d=" M 383.31 541.39 C 386.14 541.17 389.49 543.82 388.91 546.88 C 388.45 549.55 385.83 551.72 383.13 551.68 C 380.30 550.85 377.78 547.25 379.28 544.37 C 380.02 542.78 381.62 541.71 383.31 541.39 Z" />
</g>
<g id="#6b83c2ff">
<path fill="#6b83c2" opacity="1.00" d=" M 209.41 608.41 C 211.50 600.17 213.12 591.79 215.87 583.74 C 215.91 633.82 215.87 683.91 215.89 734.00 C 215.70 748.52 216.25 763.06 215.64 777.57 C 215.25 777.69 214.49 777.92 214.11 778.04 C 206.84 774.92 199.44 772.10 192.17 768.98 C 192.26 758.11 193.36 747.30 193.53 736.45 C 194.68 715.96 195.06 695.43 196.81 674.97 C 199.34 652.51 204.36 630.42 209.41 608.41 Z" />
</g>
<g id="#74bda3ff">
<path fill="#74bda3" opacity="1.00" d=" M 314.69 736.59 C 317.88 738.33 320.82 740.55 324.13 742.09 C 327.88 741.20 330.90 738.51 334.33 736.83 C 334.37 746.16 334.41 755.49 334.38 764.83 C 327.97 765.38 321.50 765.62 315.09 764.95 C 314.30 755.52 314.92 746.04 314.69 736.59 Z" />
</g>
</svg>
