<?xml version="1.0" encoding="iso-8859-1"?>
<!-- Generator: Adobe Illustrator 19.0.0, SVG Export Plug-In . SVG Version: 6.00 Build 0)  -->
<svg version="1.1" id="Capa_1" xmlns="http://www.w3.org/2000/svg" xmlns:xlink="http://www.w3.org/1999/xlink" x="0px" y="0px"
	 viewBox="0 0 464.065 464.065" style="enable-background:new 0 0 464.065 464.065;" xml:space="preserve">
<circle style="fill:#00F2A9;" cx="232.032" cy="328.032" r="96"/>
<g>
	<path style="fill:#322153;" d="M77.632,461.632l26.4-26.4l26.4,26.4c3.2,3.2,8,3.2,11.2,0l26.4-26.4l26.4,26.4
		c3.2,3.2,8,3.2,11.2,0l26.4-26.4l26.4,26.4c3.2,3.2,8,3.2,11.2,0l26.4-26.4l26.4,26.4c3.2,3.2,8,3.2,11.2,0l26.4-26.4l26.4,26.4
		c1.6,1.6,3.2,2.4,5.6,2.4c0.8,0,2.4,0,3.2-0.8c3.2-1.6,4.8-4,4.8-7.2v-448c0-3.2-1.6-6.4-4.8-7.2c-3.2-1.6-6.4-0.8-8.8,1.6
		l-26.4,26.4l-26.4-26.4c-3.2-3.2-8-3.2-11.2,0l-26.4,26.4l-26.4-26.4c-3.2-3.2-8-3.2-11.2,0l-26.4,26.4l-26.4-26.4
		c-3.2-3.2-8-3.2-11.2,0l-26.4,26.4l-26.4-26.4c-3.2-3.2-8-3.2-11.2,0l-26.4,26.4l-26.4-26.4c-2.4-2.4-5.6-3.2-8.8-1.6
		c-3.2,0.8-4.8,4-4.8,7.2v448c0,3.2,1.6,6.4,4.8,7.2C72.032,464.832,75.232,464.032,77.632,461.632z M80.032,27.232l18.4,18.4
		c3.2,3.2,8,3.2,11.2,0l26.4-26.4l26.4,26.4c3.2,3.2,8,3.2,11.2,0l26.4-26.4l26.4,26.4c3.2,3.2,8,3.2,11.2,0l26.4-26.4l26.4,26.4
		c3.2,3.2,8,3.2,11.2,0l26.4-26.4l26.4,26.4c3.2,3.2,8,3.2,11.2,0l18.4-18.4v409.6l-18.4-18.4c-3.2-3.2-8-3.2-11.2,0l-26.4,26.4
		l-26.4-26.4c-1.6-1.6-3.2-2.4-5.6-2.4s-4,0.8-5.6,2.4l-26.4,26.4l-26.4-26.4c-3.2-3.2-8-3.2-11.2,0l-26.4,26.4l-26.4-26.4
		c-3.2-3.2-8-3.2-11.2,0l-26.4,26.4l-26.4-26.4c-3.2-3.2-8-3.2-11.2,0l-18.4,18.4V27.232z"/>
	<path style="fill:#322153;" d="M232.032,400.032c57.6,0,104-46.4,104-104s-46.4-104-104-104s-104,46.4-104,104
		S174.432,400.032,232.032,400.032z M232.032,208.032c48.8,0,88,39.2,88,88s-39.2,88-88,88s-88-39.2-88-88
		S183.232,208.032,232.032,208.032z"/>
	<path style="fill:#322153;" d="M136.032,80.032h128c4.8,0,8-3.2,8-8s-3.2-8-8-8h-128c-4.8,0-8,3.2-8,8
		S131.232,80.032,136.032,80.032z"/>
	<path style="fill:#322153;" d="M296.032,80.032h32c4.8,0,8-3.2,8-8s-3.2-8-8-8h-32c-4.8,0-8,3.2-8,8S291.232,80.032,296.032,80.032
		z"/>
	<path style="fill:#322153;" d="M136.032,112.032h32c4.8,0,8-3.2,8-8s-3.2-8-8-8h-32c-4.8,0-8,3.2-8,8
		S131.232,112.032,136.032,112.032z"/>
	<path style="fill:#322153;" d="M328.032,96.032h-128c-4.8,0-8,3.2-8,8s3.2,8,8,8h128c4.8,0,8-3.2,8-8
		S332.832,96.032,328.032,96.032z"/>
	<path style="fill:#322153;" d="M136.032,144.032h96c4.8,0,8-3.2,8-8s-3.2-8-8-8h-96c-4.8,0-8,3.2-8,8
		S131.232,144.032,136.032,144.032z"/>
	<path style="fill:#322153;" d="M328.032,128.032h-64c-4.8,0-8,3.2-8,8s3.2,8,8,8h64c4.8,0,8-3.2,8-8
		S332.832,128.032,328.032,128.032z"/>
	<path style="fill:#322153;" d="M248.032,320.032h-48c-4.8,0-8,3.2-8,8s3.2,8,8,8h24v24c0,4.8,3.2,8,8,8c4.8,0,8-3.2,8-8v-24h8
		c13.6,0,24-10.4,24-24s-10.4-24-24-24h-32c-4.8,0-8-3.2-8-8s3.2-8,8-8h48c4.8,0,8-3.2,8-8s-3.2-8-8-8h-24v-24c0-4.8-3.2-8-8-8
		s-8,3.2-8,8v24h-8c-13.6,0-24,10.4-24,24s10.4,24,24,24h32c4.8,0,8,3.2,8,8S252.832,320.032,248.032,320.032z"/>
	<path style="fill:#322153;" d="M136.032,176.032h192c4.8,0,8-3.2,8-8s-3.2-8-8-8h-192c-4.8,0-8,3.2-8,8
		S131.232,176.032,136.032,176.032z"/>
</g>
<g>
</g>
<g>
</g>
<g>
</g>
<g>
</g>
<g>
</g>
<g>
</g>
<g>
</g>
<g>
</g>
<g>
</g>
<g>
</g>
<g>
</g>
<g>
</g>
<g>
</g>
<g>
</g>
<g>
</g>
</svg>
