<svg id="Layer_1" enable-background="new 0 0 512.026 512.026" height="512" viewBox="0 0 512.026 512.026" width="512" xmlns="http://www.w3.org/2000/svg"><path d="m88.011 232.013h336v264h-336z" fill="#ece2e2"/><path d="m424.011 232.013v224h-248c-26.51 0-48-21.49-48-48v-176z" fill="#f2f2f2"/><path d="m496.011 232.013h-480c65.514-58.969 16.456-14.815 240-216 150.142 135.124 165.405 148.858 240 216z" fill="#c79a83"/><path d="m451.571 192.013h-263.34c-44.938 0-66.204-55.418-32.801-85.479l100.581-90.521z" fill="#e0b7a3"/><path d="m352.011 339.213c0 43.45-57.53 84.446-96 102.4-21.038-9.818-51.138-29.209-70.44-49.54-34.493-36.317-30.389-70.406-9.48-90.11 24.111-22.77 63.603-16.988 79.92 12.45 9.003-16.242 26.393-26.85 46.1-26.38 27.738.692 49.9 23.388 49.9 51.18z" fill="#ea8692"/><path d="m351.981 340.903c-9.065 11.991-20.918 22.708-32.711 31.677-27 20.533-65.694 22.1-95.259-.567-14.268-10.935-28.638-24.497-37.893-39.836-11.581-19.193 2.146-44.164 25.093-44.164 19.28 0 36.07 10.65 44.8 26.4 16.531-29.824 56.979-35.432 81-11.41 10.122 10.121 15.471 23.879 14.97 37.9z" fill="#fe929f"/><path d="m168.011 16.013v79.2l-80 72v-151.2z" fill="#a07765"/><path d="m168.011 16.013v23.2l-80 72v-95.2z" fill="#c79a83"/><path d="m506.714 220.12-240-216c-6.084-5.477-15.322-5.476-21.407 0l-61.296 55.167v-27.274c8.836 0 16-7.163 16-16s-7.164-16-16-16c-25.508 0-88.098 0-112 0-8.836 0-16 7.163-16 16s7.164 16 16 16v128.074l-66.703 60.033c-10.862 9.776-3.94 27.893 10.704 27.893h56v232h-24c-8.836 0-16 7.163-16 16s7.164 16 16 16h416c8.837 0 16-7.163 16-16s-7.163-16-16-16h-24v-232h56c14.609 0 21.591-18.094 10.702-27.893zm-402.703-188.107h48v56.074l-48 43.2zm304 448h-304v-232h304zm-350.305-264 198.305-178.475 198.305 178.475c-23.391 0-373.146 0-396.61 0z"/><path d="m198.276 424.71c25.098 19.242 49.924 30.914 50.969 31.401 4.285 2.001 9.243 2.002 13.532 0 1.044-.487 25.871-12.16 50.969-31.401 123.178-94.437 7.116-193.537-57.735-135.582-64.78-57.896-180.831 41.235-57.735 135.582zm12.935-120.697c12.794 0 24.598 6.957 30.806 18.157 6.081 10.97 21.9 10.981 27.988 0 6.208-11.2 18.012-18.157 30.806-18.157 19.367 0 35.2 15.663 35.2 35.2 0 35.505-52.569 70.239-79.939 84.51-30.514-16.118-80.061-50.148-80.061-84.51 0-19.409 15.791-35.2 35.2-35.2z"/></svg>