<?xml version="1.0" encoding="iso-8859-1"?>
<!-- Generator: Adobe Illustrator 19.0.0, SVG Export Plug-In . SVG Version: 6.00 Build 0)  -->
<svg version="1.1" id="Layer_1" xmlns="http://www.w3.org/2000/svg" xmlns:xlink="http://www.w3.org/1999/xlink" x="0px" y="0px"
	 viewBox="0 0 512 512" style="enable-background:new 0 0 512 512;" xml:space="preserve">
<rect x="320.771" y="280.786" style="fill:#5E93CC;" width="41.678" height="17.924"/>
<g>
	<path style="fill:#FED159;" d="M207.02,294.559c-2.816,0-5.588-1.322-7.333-3.799l-67.303-95.48
		c-5.279-7.462-5.95-17.158-1.742-25.29c4.208-8.133,12.51-13.185,21.667-13.185h29.515c4.949,0,8.961,4.012,8.961,8.961
		c0,4.949-4.012,8.961-8.961,8.961H152.31c-3.555,0-5.204,2.447-5.748,3.497c-0.544,1.052-1.588,3.811,0.465,6.713l67.312,95.492
		c2.851,4.046,1.884,9.637-2.161,12.488C210.606,294.028,208.804,294.559,207.02,294.559z"/>
	<path style="fill:#FED159;" d="M299.014,301.729c-1.801,0-3.621-0.542-5.2-1.668c-4.029-2.875-4.963-8.472-2.088-12.501
		l73.269-102.649c2.031-2.871,0.987-5.629,0.443-6.682c-0.544-1.051-2.194-3.497-5.748-3.497h-29.515
		c-4.949,0-8.961-4.012-8.961-8.961c0-4.949,4.012-8.961,8.961-8.961h29.515c9.157,0,17.459,5.052,21.667,13.185
		c4.208,8.132,3.537,17.827-1.751,25.302l-73.291,102.681C304.566,300.423,301.811,301.729,299.014,301.729z"/>
</g>
<polyline style="fill:#4D4D4D;" points="329.731,326.79 329.731,250.28 182.277,250.28 182.277,326.79 "/>
<polyline style="fill:#333333;" points="223.67,326.79 223.67,250.28 182.277,250.28 182.277,326.79 "/>
<rect x="217.537" y="193.583" style="fill:#4D4D4D;" width="76.928" height="56.699"/>
<rect x="217.537" y="193.583" style="fill:#333333;" width="32.422" height="56.699"/>
<path style="fill:#5E93CC;" d="M280.105,315.02h-48.209c-66.633,0-120.65,54.017-120.65,120.65v55.667
	c0,11.412,9.25,20.662,20.662,20.662h248.185c11.412,0,20.662-9.25,20.662-20.662V435.67
	C400.756,369.037,346.739,315.02,280.105,315.02z"/>
<path style="fill:#4E84AD;" d="M163.074,490.807v-52.042c0-66.7,52.773-121.064,118.841-123.641
	c-1.628-0.063-3.261-0.105-4.905-0.105h-42.018c-68.342,0-123.746,55.402-123.746,123.746v52.042
	c0,11.704,9.488,21.193,21.192,21.193h51.828C172.562,512,163.074,502.512,163.074,490.807z"/>
<path style="fill:#EE4948;" d="M243.63,0c0,78.574-55.612,65.277-54.406,118.476c0.544,23.6,16.278,39.276,36.744,46.515
	c5.855,2.07,11.167-4.188,8.293-9.677c-8.447-16.124-14.031-42.352,19.046-64.65c1.49,30.249,26.593,35.053,26.593,56.819
	c0,2.756-0.177,5.229-0.473,7.453c-0.734,5.371,4.838,9.393,9.725,7.074c17.224-8.174,30.474-22.985,33.065-44.741
	C330.675,45.924,243.63,0,243.63,0z"/>
<rect x="353.485" y="263.765" style="fill:#4D4D4D;" width="25.989" height="47.496"/>
<g>
</g>
<g>
</g>
<g>
</g>
<g>
</g>
<g>
</g>
<g>
</g>
<g>
</g>
<g>
</g>
<g>
</g>
<g>
</g>
<g>
</g>
<g>
</g>
<g>
</g>
<g>
</g>
<g>
</g>
</svg>
